# xmcd
# Track frame offsets:
# 150
# 9875
# 20628
# 35435
# 54190
# 66397
# 80295
# 94364
# 115097
# 133554
# 152835
# 163884
# 176772
# 187194
# 203087
# 222657
# 238327
# 254986
# 266201
# 278877
#
# Disc length: 3929 seconds
# Revision: 0
# Processed by: cddbd v1.5.2PL0 Copyright (c) Steve Scherf et al.
# Submitted via: VisiTrax 2.11.2.271 - For more info visit www.synapsa.com
#
DISCID=330f5714
DTITLE=Horan. Peter - Encore
DYEAR=2004
DGENRE=Country
TTITLE0=Snowbird
TTITLE1=You Are My Sunshine - Let The Sunshine In
TTITLE2=Chrystal  Chandeliers
TTITLE3=Walk On By ? She Thinks I Still Care
TTITLE4=Waltz Across Texas
TTITLE5=Save The Last Dance For Me
TTITLE6=Could I Have This Dance
TTITLE7=Half As Much As I Love You - Honky Tonk Angels
TTITLE8=I Just Called To Say I love You
TTITLE9=Blue Bayou
TTITLE10=Neverending Love For You
TTITLE11=Silver Threads and Golden Needles
TTITLE12=On The Road Again
TTITLE13=Fly Like A Bird
TTITLE14=Walk Right Back - Bye Bye Baby
TTITLE15=When I Grow Too Old To Dream,
TTITLE16=Spanish Eyes
TTITLE17=Skaters Waltz. The
TTITLE18=Swedish Rhapsody
TTITLE19=Rose. The
EXTD=
EXTT0=
EXTT1=
EXTT2=
EXTT3=
EXTT4=
EXTT5=
EXTT6=
EXTT7=
EXTT8=
EXTT9=
EXTT10=
EXTT11=
EXTT12=
EXTT13=
EXTT14=
EXTT15=
EXTT16=
EXTT17=
EXTT18=
EXTT19=
PLAYORDER=
